# 3ds Max Wavefront OBJ Exporter v0.97b - (c)2007 guruware
# File Created: 28.08.2015 23:30:14

mtllib water.mtl

#
# object Plane002
#

v  -11.2921 -9.7859 -2.5955
v  -4.9732 -9.7859 8.0049
v  -1.9359 -9.7859 -11.8529
v  -10.8883 -9.7859 -11.8529
v  7.0166 -9.7859 8.0049
v  5.4113 -9.7859 -9.6146
# 6 vertices

vn 0.0000 1.0000 -0.0000
# 1 vertex normals

vt -0.0896 -0.3005 0.5000
vt 0.5000 -0.3005 0.5000
vt 0.5000 1.3005 0.5000
vt -0.0896 1.3005 0.5000
vt 1.0896 -0.3005 0.5000
vt 1.0896 1.3005 0.5000
# 6 texture coords

g Plane002
usemtl wire_008061138
s 1
f 1/1/1 2/2/1 3/3/1 4/4/1 
f 2/2/1 5/5/1 6/6/1 3/3/1 
# 2 polygons

